<?xml version="1.0" encoding="UTF-8"?>
<svg width="39px" height="39px" viewBox="0 0 39 39" version="1.1" xmlns="http://www.w3.org/2000/svg" xmlns:xlink="http://www.w3.org/1999/xlink">
    <!-- Generator: Sketch 48.2 (47327) - http://www.bohemiancoding.com/sketch -->
    <title>Group 45</title>
    <desc>Created with Sketch.</desc>
    <defs></defs>
    <g id="01-GeM-Landing-Copy-2" stroke="none" stroke-width="1" fill="none" fill-rule="evenodd" transform="translate(-1191.000000, -3173.000000)">
        <g id="Group-45" transform="translate(1192.000000, 3174.000000)">
            <g id="Group-32" fill="#FFFFFF" stroke="#04133A">
                <g id="Group-30">
                    <circle id="Oval-3" cx="18.5" cy="18.5" r="18.5"></circle>
                </g>
            </g>
            <g id="Group-34" transform="translate(10.000000, 11.000000)" fill="#F5821F" fill-rule="nonzero">
                <g id="126492" transform="translate(8.500000, 10.000000) rotate(90.000000) translate(-8.500000, -10.000000) translate(4.000000, 2.000000)">
                    <path d="M1.10736755,7.83292293 L8.41074036,0.75760116 C8.59035927,0.583590926 8.59035927,0.304517909 8.41074036,0.130507675 C8.23112145,-0.0435025585 7.94305338,-0.0435025585 7.76343446,0.130507675 L0.134714185,7.5210178 C-0.0449047284,7.69502803 -0.0449047284,7.97410105 0.134714185,8.14811128 L7.76343446,15.5353382 C7.8515494,15.6207017 7.97016567,15.6666667 8.08539289,15.6666667 C8.20062012,15.6666667 8.31923639,15.6239849 8.40735132,15.5353382 C8.58697024,15.361328 8.58697024,15.0822549 8.40735132,14.9082447 L1.10736755,7.83292293 Z" id="Shape"></path>
                </g>
                <g id="126492" transform="translate(8.500000, 5.000000) rotate(90.000000) translate(-8.500000, -5.000000) translate(4.000000, -3.000000)">
                    <path d="M1.16627008,7.99958087 L8.85812017,0.773720333 C9.04729328,0.596007754 9.04729328,0.310997014 8.85812017,0.133284434 C8.66894706,-0.0444281448 8.36555622,-0.0444281448 8.17638311,0.133284434 L0.141879833,7.68103945 C-0.0472932778,7.85875203 -0.0472932778,8.14376277 0.141879833,8.32147535 L8.17638311,15.8658773 C8.26918501,15.9530571 8.39411065,16 8.51546698,16 C8.63682332,16 8.76174896,15.9564101 8.85455086,15.8658773 C9.04372397,15.6881647 9.04372397,15.403154 8.85455086,15.2254414 L1.16627008,7.99958087 Z" id="Shape"></path>
                </g>
            </g>
        </g>
    </g>
</svg>