<?xml version="1.0" encoding="UTF-8"?>
<svg width="45px" height="46px" viewBox="0 0 45 46" version="1.1" xmlns="http://www.w3.org/2000/svg" xmlns:xlink="http://www.w3.org/1999/xlink">
    <!-- Generator: Sketch 52.5 (67469) - http://www.bohemiancoding.com/sketch -->
    <title>1311163</title>
    <desc>Created with Sketch.</desc>
    <g id="Page-2" stroke="none" stroke-width="1" fill="none" fill-rule="evenodd">
        <g id="Home-Dropdown" transform="translate(-660.000000, -1557.000000)" fill="#05256F">
            <g id="Group-36" transform="translate(206.000000, 1477.000000)">
                <g id="1311163" transform="translate(454.000000, 80.000000)">
                    <path d="M37.1151214,28.1274051 C37.1151214,28.5472947 37.4555623,28.8877357 37.875452,28.8877357 C38.2953416,28.8877357 38.6357825,28.5472947 38.6357825,28.1274051 L38.6357825,25.8917065 C38.6357825,25.4718168 38.2648986,25.1714714 37.845009,25.1714714 L23.2390883,25.1714714 L23.2390883,21.9452641 L24.8937726,23.5988346 C25.1904055,23.8958387 25.6719234,23.89621 25.9692989,23.5992059 C26.266303,23.3022018 26.266303,22.8206837 25.9692989,22.5236796 L23.1180592,19.6724399 C22.8214263,19.3754358 22.3399084,19.3754358 22.0429042,19.6724399 L19.1916646,22.5236796 C18.9908154,22.7137622 18.9091393,22.9977724 18.9781928,23.2654475 C19.0472462,23.5334936 19.2562629,23.7425103 19.5239379,23.8119351 C19.7916129,23.8813598 20.0759943,23.7996836 20.266077,23.5988346 L21.7184272,22.1461131 L21.7184272,25.1714714 L7.11510522,25.1714714 C6.6952156,25.1714714 6.32173295,25.4718168 6.32173295,25.8917065 L6.32173295,28.1274051 C6.32173295,28.5472947 6.66217392,28.8877357 7.08206353,28.8877357 C7.50195315,28.8877357 7.84239411,28.5472947 7.84239411,28.1274051 L7.84239411,26.6921326 L21.7184272,26.6921326 L21.7184272,27.7891916 C21.7184272,28.2090812 22.0588681,28.5495222 22.4787577,28.5495222 C22.8986474,28.5495222 23.2390883,28.2090812 23.2390883,27.7891916 L23.2390883,26.6921326 L37.1151214,26.6921326 L37.1151214,28.1274051 Z" id="Path"></path>
                    <path d="M10.3134685,32.6797359 C10.3134685,30.7900472 8.7812984,29.2582483 6.89198089,29.2582483 L6.70189824,29.2582483 C4.8122094,29.2582483 3.28041064,30.7900472 3.28041064,32.6797359 L3.28041064,33.9152731 C3.28041064,35.8049619 4.8122094,37.3367607 6.70189824,37.3367607 L6.89198089,37.3367607 C8.7812984,37.3367607 10.3134685,35.8049619 10.3134685,33.9152731 L10.3134685,32.6797359 Z M8.79280733,33.9152731 C8.79280733,34.9651827 7.94151926,35.8160995 6.89198089,35.8160995 L6.70189824,35.8160995 C5.65198864,35.8160995 4.8010718,34.9651827 4.8010718,33.9152731 L4.8010718,32.6797359 C4.8010718,31.6298263 5.65198864,30.7789095 6.70189824,30.7789095 L6.89198089,30.7789095 C7.94151926,30.7789095 8.79280733,31.6298263 8.79280733,32.6797359 L8.79280733,33.9152731 Z" id="Shape" fill-rule="nonzero"></path>
                    <path d="M0.260621174,45.748289 C0.400955579,45.8908509 0.592894475,45.971042 0.793001033,45.971042 L12.8862668,45.9695571 C13.0871159,45.9691858 13.279426,45.8889947 13.4208743,45.7460615 C13.5626937,45.6034995 13.6413998,45.4100756 13.6399148,45.2092265 L13.6399148,41.7197992 C13.7312435,40.7136977 13.3937726,39.7153926 12.7102918,38.971026 C12.0268111,38.2270306 11.0608051,37.8060272 10.0506198,37.8119673 L9.35748642,37.8119673 C9.1763139,37.807141 8.99922521,37.8680269 8.85963326,37.9838585 L6.84631648,39.7224464 L4.91393337,37.9964811 C4.77359887,37.8739669 4.59242635,37.8082548 4.4060563,37.8119673 L3.6245642,37.8119673 C2.61549262,37.8063985 1.65097174,38.2281443 0.969718492,38.972511 C0.28846524,39.7172488 -0.0460356405,40.7151827 0.0490056818,41.7197992 L0.0490056818,45.2107115 C0.0449218512,45.4111894 0.121029231,45.6046133 0.260621174,45.748289 Z M2.07271761,40.0079416 C2.4688468,39.5702318 3.03426844,39.3240896 3.6245642,39.3326285 L4.11462102,39.3326285 L6.32915806,41.3084485 C6.40563667,41.3749032 6.49510914,41.4250226 6.59163548,41.4554655 C6.84557402,41.546423 7.12884164,41.4951898 7.3352596,41.3210711 L9.64112536,39.3326285 L10.0506198,39.3326285 C10.6398018,39.3255747 11.2041097,39.5709743 11.6006102,40.0068278 C11.9974819,40.4426815 12.1890496,41.0274084 12.1266787,41.6136202 C12.1229662,41.6366381 12.1203674,41.6600272 12.1192536,41.6834162 L12.1192536,44.4492672 L1.56966684,44.4503809 L1.56966684,41.6834162 C1.56595424,41.6600272 1.56075671,41.6366381 1.55481663,41.6136202 C1.4879907,41.0288933 1.67695956,40.4437951 2.07308884,40.0079416 L2.07271761,40.0079416 Z" id="Shape" fill-rule="nonzero"></path>
                    <path d="M26.090328,32.6797359 C26.090328,30.7900472 24.5581579,29.2582483 22.6688404,29.2582483 L22.4787577,29.2582483 C20.5890689,29.2582483 19.0572701,30.7900472 19.0572701,32.6797359 L19.0572701,33.9152731 C19.0572701,35.8049619 20.5890689,37.3367607 22.4787577,37.3367607 L22.6688404,37.3367607 C24.5581579,37.3367607 26.090328,35.8049619 26.090328,33.9152731 L26.090328,32.6797359 Z M24.5696668,33.9152731 C24.5696668,34.9651827 23.7183788,35.8160995 22.6688404,35.8160995 L22.4787577,35.8160995 C21.4288481,35.8160995 20.5779313,34.9651827 20.5779313,33.9152731 L20.5779313,32.6797359 C20.5779313,31.6298263 21.4288481,30.7789095 22.4787577,30.7789095 L22.6688404,30.7789095 C23.7183788,30.7789095 24.5696668,31.6298263 24.5696668,32.6797359 L24.5696668,33.9152731 Z" id="Shape" fill-rule="nonzero"></path>
                    <path d="M16.0556722,45.748289 C16.1997192,45.8912223 16.3946281,45.971042 16.5973334,45.971042 L28.677234,45.9695571 C28.876598,45.9688146 29.0674232,45.8878809 29.2066439,45.7445764 C29.3458645,45.6016432 29.4216006,45.4089618 29.4171455,45.2092265 L29.4171455,41.7197992 C29.5170131,40.7177815 29.1873385,39.7202189 28.5097979,38.975481 C27.8326285,38.2303719 26.8707063,37.8075122 25.8638623,37.8119673 L25.1711002,37.8119673 C24.9895565,37.8067698 24.8124677,37.8680269 24.6728757,37.9838585 L22.6591877,39.7224464 L20.7271759,37.9964811 C20.5864702,37.8743382 20.4052977,37.808626 20.2189275,37.8123385 L19.4374354,37.8123385 C18.4157412,37.8078836 17.4397114,38.2351982 16.7499193,38.9888462 C16.0720074,39.7287577 15.7363927,40.720009 15.8258652,41.7197992 L15.8258652,45.2107115 C15.828464,45.4134168 15.9112538,45.6064695 16.0556722,45.748289 Z M17.8859601,40.0079416 C18.2820894,39.5702318 18.847511,39.3244609 19.4378067,39.3326285 L19.9278635,39.3326285 L22.1424005,41.3084485 C22.2188791,41.3749032 22.3083516,41.4250226 22.4048779,41.4554655 C22.6588165,41.546423 22.9420842,41.4951898 23.1485021,41.3210711 L25.4543679,39.3326285 L25.8638623,39.3326285 C26.452673,39.3222333 27.0173521,39.5672617 27.4119964,40.0046004 C27.8066406,40.4419389 27.9926395,41.0288933 27.9217297,41.6136202 C27.9195022,41.6392369 27.8961131,41.6577996 27.8961131,41.6834162 L27.8961131,44.4492672 L17.3465263,44.4503809 L17.3465263,41.6834162 C17.3487538,41.6603984 17.3498676,41.6370093 17.3498676,41.6136202 C17.2897243,41.0262946 17.4850045,40.4415677 17.8859601,40.0079416 Z" id="Shape" fill-rule="nonzero"></path>
                    <path d="M41.5820635,32.6797359 C41.5820635,30.7900472 40.0498934,29.2582483 38.1605759,29.2582483 L37.9704933,29.2582483 C36.0808044,29.2582483 34.5490057,30.7900472 34.5490057,32.6797359 L34.5490057,33.9152731 C34.5490057,35.8049619 36.0808044,37.3367607 37.9704933,37.3367607 L38.1605759,37.3367607 C40.0498934,37.3367607 41.5820635,35.8049619 41.5820635,33.9152731 L41.5820635,32.6797359 Z M40.0614024,33.9152731 C40.0614024,34.9651827 39.2101143,35.8160995 38.1605759,35.8160995 L37.9704933,35.8160995 C36.9205837,35.8160995 36.0696668,34.9651827 36.0696668,33.9152731 L36.0696668,32.6797359 C36.0696668,31.6298263 36.9205837,30.7789095 37.9704933,30.7789095 L38.1605759,30.7789095 C39.2101143,30.7789095 40.0614024,31.6298263 40.0614024,32.6797359 L40.0614024,33.9152731 Z" id="Shape" fill-rule="nonzero"></path>
                    <path d="M31.5358988,45.748289 C31.6777183,45.8908509 31.870771,45.971042 32.07162,45.971042 L44.1596882,45.9695571 C44.360166,45.9691858 44.5521049,45.8886235 44.6924394,45.7456902 C44.833145,45.6027569 44.9107373,45.4097042 44.9081386,45.2092265 L44.9081386,41.7197992 C45.0028086,40.7151827 44.6683077,39.7176201 43.9874258,38.9728822 C43.3065438,38.2285156 42.3423941,37.8067698 41.3333226,37.8119673 L40.6401892,37.8119673 C40.4590167,37.8067698 40.281928,37.8680269 40.142336,37.9838585 L38.1290193,39.7224464 L36.1970074,37.9964811 C36.0563017,37.8739669 35.8751291,37.8082548 35.688759,37.8119673 L34.9072669,37.8119673 C33.8967104,37.8060272 32.9307044,38.2266594 32.2472237,38.971026 C31.5633716,39.7150213 31.2259007,40.7133264 31.3176007,41.7197992 L31.3176007,45.2107115 C31.3157445,45.4119318 31.3944506,45.6053557 31.5358988,45.748289 Z M33.3550491,40.0079416 C33.7515496,39.5702318 34.3169712,39.3240896 34.9072669,39.3326285 L35.3973237,39.3326285 L37.6118608,41.3084485 C37.6879681,41.3749032 37.7774406,41.4246513 37.8735957,41.4554655 C38.1279055,41.546423 38.4115444,41.4951898 38.6179623,41.3210711 L40.9241994,39.3326285 L41.3333226,39.3326285 C41.9225045,39.3240896 42.4868123,39.5694893 42.8829416,40.0060854 C43.2786997,40.4423102 43.4680398,41.0281508 43.4026989,41.6136202 C43.3963875,41.6366381 43.3911899,41.6600272 43.3878487,41.6834162 L43.3878487,44.4492672 L32.8382619,44.4503809 L32.8382619,41.6834162 C32.8367769,41.6600272 32.834178,41.6370093 32.8304655,41.6136202 C32.7662383,41.0277796 32.9574348,40.4426815 33.3554203,40.0079416 L33.3550491,40.0079416 Z" id="Shape" fill-rule="nonzero"></path>
                    <path d="M22.711906,0.0367542851 C22.5604339,-0.0122513967 22.3970816,-0.0122513967 22.2452383,0.0367542851 L13.494754,2.86089226 C13.1821572,2.96298745 12.9716555,3.25553652 12.9746255,3.58446864 L12.9746255,15.5370286 C12.9716555,15.8659607 13.1821572,16.158881 13.494754,16.2609762 L22.2482083,19.0851143 C22.3989379,19.1337487 22.5615477,19.1337487 22.7122772,19.0851143 L31.4623902,16.2609762 C31.7749871,16.158881 31.9854888,15.8659607 31.9825187,15.5370286 L31.9825187,3.58446864 C31.9851175,3.25553652 31.7746159,2.96298745 31.462019,2.86089226 L22.711906,0.0367542851 Z M22.4787577,1.55927169 L28.7585389,3.58446864 L22.4787577,5.6096656 L16.1986054,3.58446864 L22.4787577,1.55927169 Z M14.4952867,4.62918063 L21.6233858,6.93207645 L21.6233858,17.2867543 L14.4952867,14.9834872 L14.4952867,4.62918063 Z M23.144047,17.3483826 L23.144047,6.99296229 L30.4622288,4.62843817 L30.4622288,14.9834872 L23.144047,17.3483826 Z" id="Shape" fill-rule="nonzero"></path>
                </g>
            </g>
        </g>
    </g>
</svg>