<svg width="20" height="19" viewBox="0 0 20 19" fill="none" xmlns="http://www.w3.org/2000/svg">
<path d="M0.243011 18.0364C0.243011 18.3081 0.465234 18.5303 0.736839 18.5303H19.9961V18.0364C19.9961 15.9871 19.0084 14.0611 17.3294 12.9006C15.8726 11.8883 14.2677 11.1969 12.564 10.876C14.3418 9.98706 15.5763 8.13521 15.5763 5.98706C15.5763 2.97472 13.1319 0.530273 10.1196 0.530273C7.10721 0.530273 4.66276 2.99941 4.66276 6.01175C4.66276 8.13521 5.89733 9.98706 7.67511 10.9006C5.97141 11.2463 4.34178 11.913 2.90968 12.9253C1.23067 14.0858 0.243011 15.9871 0.243011 18.0364C0.243011 18.3081 0.465234 18.5303 0.736839 18.5303C1.00844 18.5303 1.23067 18.3081 1.23067 18.0364C1.23067 16.3081 2.07017 14.7031 3.47758 13.7155C5.4282 12.3574 7.72449 11.6414 10.1196 11.6414C12.5146 11.6414 14.8109 12.3574 16.7615 13.7155C18.0208 14.6043 18.8356 16.0118 18.9838 17.5426H0.736839C0.465234 17.5426 0.243011 17.7648 0.243011 18.0364ZM5.65042 6.01175C5.65042 3.54262 7.65042 1.54262 10.1196 1.54262C12.5887 1.54262 14.5887 3.54262 14.5887 6.01175C14.5887 8.48089 12.5887 10.4809 10.1196 10.4809C7.65042 10.4809 5.65042 8.48089 5.65042 6.01175Z" fill="white"/>
</svg>
