<?xml version="1.0" encoding="UTF-8"?>
<svg width="48px" height="46px" viewBox="0 0 48 46" version="1.1" xmlns="http://www.w3.org/2000/svg" xmlns:xlink="http://www.w3.org/1999/xlink">
    <!-- Generator: Sketch 52.5 (67469) - http://www.bohemiancoding.com/sketch -->
    <title>1311114</title>
    <desc>Created with Sketch.</desc>
    <g id="Page-2" stroke="none" stroke-width="1" fill="none" fill-rule="evenodd">
        <g id="Home-Dropdown" transform="translate(-283.000000, -1557.000000)" fill="#05256F" fill-rule="nonzero">
            <g id="Group-36" transform="translate(206.000000, 1477.000000)">
                <g id="1311114" transform="translate(77.000000, 80.000000)">
                    <path d="M47.2199303,28.1220816 L42.3103897,26.5480691 C42.7258407,24.8620362 42.9341814,23.1322579 42.9313106,21.3959383 C42.9313106,9.59820466 33.3000639,0 21.464835,0 C9.63001624,0 0,9.59820466 0,21.3959383 C0,33.1940808 9.62755558,42.7922854 21.4627844,42.7922854 C23.2599282,42.7931032 25.0500998,42.5694707 26.7910571,42.1267031 C26.8181251,42.4631738 27.0453312,42.7505844 27.3676852,42.855246 L37.0239491,45.9595254 C37.1916879,46.0134915 37.3717304,46.0134915 37.5394693,45.9595254 L47.2195202,42.855246 C47.5718129,42.7460872 47.8154238,42.4259698 47.826087,42.0588366 L47.826087,28.9193085 C47.815834,28.5517664 47.572223,28.2312403 47.2199303,28.1220816 Z M37.2815041,31.1437764 L30.3615576,28.9193085 L37.2815041,26.6944318 L44.2018607,28.9193085 L37.2815041,31.1437764 Z M6.1878832,33.9332533 C3.45730754,30.6351864 1.88080803,26.5394837 1.69748469,22.2671644 L8.86309281,22.2671644 C8.94060537,25.3023508 9.43972079,28.1335288 10.3169665,30.7087766 C8.8110076,31.6078034 7.42357327,32.6912146 6.1878832,33.9332533 Z M10.3169665,12.1256188 C9.43972079,14.7008665 8.94060537,17.5573923 8.86309281,20.5925787 L1.69748469,20.5925787 C1.86194259,16.3088122 3.44049256,12.1988001 6.1878832,8.90114207 C7.42398346,10.1435898 8.8110076,11.226592 10.3169665,12.1256188 Z M36.6888815,8.83613738 C39.4608792,12.1489224 41.0562441,16.282238 41.2264438,20.5925787 L34.0608356,20.5925787 C33.9829129,17.5573923 33.478876,14.6763365 32.5921977,12.0888237 C34.0870833,11.1775319 35.4634444,10.0847176 36.6888815,8.83613738 Z M32.3805759,20.5925787 L22.3133723,20.5925787 L22.3133723,15.1542639 C25.3695829,15.0365196 28.365916,14.2711816 31.1022334,12.9089455 C31.8716176,15.2499311 32.3067545,17.7667155 32.3805759,20.5925787 Z M22.3133723,13.4784518 L22.3133723,1.93705733 C25.9880432,3.9064125 28.8158172,7.17340804 30.5235548,11.310403 C27.9750722,12.6125406 25.1747761,13.352122 22.3133723,13.4784518 Z M20.6335228,13.4784518 C17.7696582,13.3684753 14.9640307,12.6403412 12.4098063,11.3443363 C14.1159035,7.19139665 16.958852,3.91172733 20.6335228,1.93705733 L20.6335228,13.4784518 Z M20.6335228,15.1542639 L20.6335228,20.5925787 L10.5433524,20.5925787 C10.6003591,17.995254 11.0309845,15.4191886 11.8216949,12.9436964 C14.5674451,14.2989824 17.5715705,15.052873 20.6335228,15.1546727 L20.6335228,15.1542639 Z M10.5433524,22.2671644 L20.6335228,22.2671644 L20.6335228,27.6372039 C17.5695199,27.750451 14.5649843,28.515789 11.8216949,29.8821135 C11.0309845,27.4180687 10.6003591,24.8534507 10.5433524,22.2671644 Z M22.3133723,29.3117895 C23.8398371,29.3788384 25.3535883,29.6139182 26.8279679,30.0129405 L26.8279679,37.3854508 C25.4630902,38.7983824 23.9932219,39.9623339 22.3133723,40.8540017 L22.3133723,29.3117895 Z M20.6335228,29.3130161 L20.6335228,40.8552282 C16.958852,38.8805581 14.1154933,35.6012976 12.4098063,31.4475403 C14.9640307,30.1515353 17.7696582,29.4234013 20.6335228,29.3130161 Z M26.8279679,39.7395192 L26.8279679,40.3944718 C26.4080055,40.4974981 26.0856516,40.5894858 25.7103922,40.6704351 C26.0938539,40.3756654 26.4080055,40.0649513 26.8279679,39.7395192 Z M27.367275,28.1220816 C27.236447,28.1650091 27.1187426,28.2406435 27.0248253,28.3412168 C25.4852366,27.9340176 23.9050461,27.6973026 22.3133723,27.6355686 L22.3133723,22.2671644 L32.3797557,22.2671644 C32.3379235,23.746736 32.1828984,25.2214016 31.9150904,26.6772608 L27.367275,28.1220816 Z M37.5394693,25.017802 C37.3717304,24.9638359 37.1916879,24.9638359 37.0239491,25.017802 L33.7183858,26.0979425 C33.9115521,24.8293294 34.0255653,23.5496779 34.0604254,22.2671644 L41.227264,22.2671644 C41.1718979,23.54191 40.993906,24.8084788 40.695339,26.0492912 L37.5394693,25.017802 Z M35.5606427,7.57570107 C34.4869497,8.67791855 33.2861198,9.64971784 31.9831701,10.4702485 C30.5469317,7.07692302 28.4061078,4.22693866 25.6747119,2.12593876 C29.4314066,2.94565166 32.8669777,4.8393725 35.5606427,7.57570107 Z M17.2492166,2.12593876 C14.505517,4.23634187 12.3573111,7.10267962 10.9210725,10.515629 C9.60663946,9.7004133 8.39514647,8.73065816 7.31202076,7.62803187 C10.0130679,4.86390256 13.4679147,2.95096659 17.2492166,2.12593876 Z M7.31202076,35.1638449 C8.39514647,34.0612185 9.60663946,33.0914633 10.9210725,32.2762476 C12.3573111,35.6896058 14.505517,38.5559437 17.2492166,40.6659379 C13.4679147,39.8409102 10.0126578,37.9279741 7.31202076,35.1638449 Z M28.5078174,30.0689508 L36.1721309,32.5464871 L36.1721309,43.9263921 L28.5078174,41.4484468 L28.5078174,30.0689508 Z M37.8519804,44.0997378 L37.8519804,32.7198329 L46.1462374,30.0689508 L46.1462374,41.4484468 L37.8519804,44.0997378 Z" id="Shape"></path>
                </g>
            </g>
        </g>
    </g>
</svg>