<?xml version="1.0" encoding="UTF-8"?>
<svg width="24px" height="24px" viewBox="0 0 24 24" version="1.1" xmlns="http://www.w3.org/2000/svg" xmlns:xlink="http://www.w3.org/1999/xlink">
    <!-- Generator: Sketch 52.5 (67469) - http://www.bohemiancoding.com/sketch -->
    <title>1090831</title>
    <desc>Created with Sketch.</desc>
    <g id="Page-2" stroke="none" stroke-width="1" fill="none" fill-rule="evenodd">
        <g id="Buyer-Signup" transform="translate(-83.000000, -517.000000)" fill="#FFFFFF">
            <g id="Group-8" transform="translate(0.000000, 267.000000)">
                <g id="Group-22" transform="translate(83.000000, 78.000000)">
                    <g id="Group-21" transform="translate(0.000000, 51.000000)">
                        <g id="Group-3" transform="translate(0.000000, 4.000000)">
                            <g id="1090831" transform="translate(0.000000, 117.000000)">
                                <path d="M5.68421053,10.1052632 C5.85049339,10.1052632 6.0133224,10.0376644 6.13075655,9.92023023 C6.24819082,9.80254933 6.31578947,9.63972038 6.31578947,9.47368421 C6.31578947,9.30740128 6.24819082,9.14457234 6.13075655,9.02713813 C6.0133224,8.90970392 5.85049339,8.84210526 5.68421053,8.84210526 C5.51743421,8.84210526 5.35534541,8.90970392 5.23766451,9.02713813 C5.12023023,9.14457234 5.05263158,9.30740128 5.05263158,9.47368421 C5.05263158,9.63972038 5.12023023,9.80254933 5.23766451,9.92023023 C5.35534541,10.0376644 5.51817436,10.1052632 5.68421053,10.1052632 Z" id="Path"></path>
                                <path d="M12.4470395,9.02713819 C12.3291118,8.90970398 12.1667763,8.84210526 12,8.84210526 C11.8339638,8.84210526 11.6708882,8.90970398 11.5534539,9.02713819 C11.4360198,9.1445724 11.3684211,9.30764804 11.3684211,9.47368421 C11.3684211,9.63972044 11.4360198,9.80279608 11.5534539,9.92023029 C11.6708882,10.0376645 11.8339638,10.1052632 12,10.1052632 C12.1667763,10.1052632 12.3291118,10.0376645 12.4470395,9.92023029 C12.5644737,9.80279608 12.6315789,9.64046059 12.6315789,9.47368421 C12.6315789,9.30764804 12.5644737,9.1445724 12.4470395,9.02713819 Z" id="Path"></path>
                                <path d="M14.5268092,8.84210526 C14.6930921,8.84210526 14.8559211,8.77450661 14.9733553,8.6570724 C15.0907895,8.53963819 15.1578947,8.37656255 15.1578947,8.21052632 C15.1578947,8.04449015 15.0907895,7.88141451 14.9733553,7.76398029 C14.8559211,7.64654608 14.6930921,7.57894737 14.5268092,7.57894737 C14.3602796,7.57894737 14.197204,7.64654608 14.0797697,7.76398029 C13.9623356,7.88141451 13.8947368,8.04449015 13.8947368,8.21052632 C13.8947368,8.37656255 13.9623356,8.53963819 14.0797697,8.6570724 C14.197204,8.77450661 14.3602796,8.84210526 14.5268092,8.84210526 Z" id="Path"></path>
                                <path d="M22.59375,11.5311549 L21.2858276,11.5311549 L23.5881958,9.22876912 C23.8536987,8.9630811 24,8.60986792 24,8.23431573 C24,7.85876358 23.8536987,7.50555045 23.5881958,7.24004547 L21.4998779,5.15171168 C21.3169556,4.96878791 21.0201416,4.96878791 20.8370362,5.15171168 C20.5715332,5.4173997 20.2183228,5.5637021 19.8427734,5.5637021 C19.467041,5.5637021 19.1140137,5.4173997 18.8483276,5.15171168 C18.5826416,4.8862067 18.4365234,4.53299357 18.4365234,4.15744137 C18.4365234,3.78170608 18.5828247,3.42867605 18.8483276,3.16298797 C18.9362183,3.07509668 18.9856568,2.95589414 18.9856568,2.83156457 C18.9856568,2.707235 18.9362183,2.58803246 18.8483276,2.50014117 L16.7601929,0.411990424 C16.4945068,0.146302397 16.1414795,0 15.7657471,0 C15.3901978,0 15.0369873,0.146302397 14.7714844,0.411990424 L7.02941897,8.15393185 C6.8463135,8.33685557 6.8463135,8.63367183 7.02941897,8.8167787 C7.21252444,8.99988557 7.50933839,8.99988557 7.69244386,8.8167787 L15.4343262,1.07483732 C15.5229492,0.986213555 15.6405029,0.937507152 15.7657471,0.937507152 C15.8909912,0.937507152 16.008728,0.986213555 16.097168,1.07483732 L17.8870239,2.86452381 C17.6345215,3.24465366 17.4990234,3.69070198 17.4990234,4.15744137 C17.4990234,4.78348376 17.7427368,5.3719892 18.1854858,5.81474163 C18.6282349,6.25731091 19.2167358,6.50120925 19.8427734,6.50120925 C20.3095093,6.50120925 20.7553711,6.36571017 21.1356811,6.11320579 L22.925354,7.90289232 C23.1080933,8.085633 23.1080933,8.38299855 22.925354,8.56573918 L19.9599609,11.5311549 L17.9049683,11.5311549 L19.4450684,9.99104302 C19.6279907,9.80793615 19.6279907,9.51111993 19.4450684,9.32819616 L14.6720581,4.55514949 C14.4889526,4.37204262 14.1921387,4.37204262 14.0090332,4.55514949 L7.03308103,11.5311549 L1.40625,11.5311549 C0.630798328,11.5311549 0,12.161958 0,12.9374156 L0,15.8905631 C0,16.1492931 0.209838844,16.3593167 0.46875,16.3593167 C1.24420167,16.3593167 1.875,16.9901199 1.875,17.7655774 C1.875,18.5408519 1.24420167,19.1718382 0.46875,19.1718382 C0.209838844,19.1718382 0,19.3816786 0,19.6405917 L0,22.5937393 C0,23.3690137 0.630798328,24 1.40625,24 L22.59375,24 C23.3692017,24 24,23.3690137 24,22.5937393 L24,19.6405917 C24,19.3816786 23.7901612,19.1718382 23.53125,19.1718382 C22.7557983,19.1718382 22.125,18.5408519 22.125,17.7655774 C22.125,16.9901199 22.7557983,16.3593167 23.53125,16.3593167 C23.7901612,16.3593167 24,16.1492931 24,15.8905631 L24,12.9374156 C24,12.161958 23.3692017,11.5311549 22.59375,11.5311549 Z M14.3404541,5.54941979 L18.4506225,9.65961957 L16.5791016,11.5311549 L14.7229614,11.5311549 L16.097168,10.1567547 C16.2802734,9.973831 16.2802734,9.67701473 16.097168,9.49390787 C15.9142456,9.310801 15.6174316,9.310801 15.4343262,9.49390787 L13.3970948,11.5309718 L8.35894777,11.5309718 L14.3404541,5.54941979 Z M23.0625,15.468868 C21.9940796,15.6865821 21.1875,16.6336108 21.1875,17.7655774 C21.1875,18.897361 21.9940796,19.8443897 23.0625,20.0622869 L23.0625,22.5937393 C23.0625,22.852103 22.8522949,23.0624928 22.59375,23.0624928 L1.40625,23.0624928 C1.14770508,23.0624928 0.9375,22.852103 0.9375,22.5937393 L0.9375,20.0622869 C2.00592042,19.8443897 2.8125,18.897361 2.8125,17.7655774 C2.8125,16.6336108 2.00592042,15.6867652 0.9375,15.468868 L0.9375,12.9374156 C0.9375,12.6788687 1.14770508,12.468662 1.40625,12.468662 L22.59375,12.468662 C22.8522949,12.468662 23.0625,12.6788687 23.0625,12.9374156 L23.0625,15.468868 Z" id="Shape" fill-rule="nonzero"></path>
                                <path d="M9.92023023,17.4991776 C10.0376645,17.3814967 10.1052632,17.2186677 10.1052632,17.0526316 C10.1052632,16.8863487 10.0376645,16.7235197 9.92023023,16.6060855 C9.80279608,16.4886513 9.63972038,16.4210526 9.47368421,16.4210526 C9.30764804,16.4210526 9.14457234,16.4886513 9.02713819,16.6060855 C8.90970392,16.7235197 8.84210526,16.8863487 8.84210526,17.0526316 C8.84210526,17.2186677 8.90970392,17.3814967 9.02713819,17.4991776 C9.14457234,17.6166118 9.30764804,17.6842105 9.47368421,17.6842105 C9.63972038,17.6842105 9.80279608,17.6166118 9.92023023,17.4991776 Z" id="Path"></path>
                                <path d="M14.9728618,17.4991776 C15.0902961,17.3814967 15.1578947,17.2186677 15.1578947,17.0526316 C15.1578947,16.8863487 15.0902961,16.7235197 14.9728618,16.6060855 C14.8554277,16.4886513 14.692352,16.4210526 14.5263158,16.4210526 C14.3602796,16.4210526 14.1972039,16.4886513 14.0797698,16.6060855 C13.9623355,16.7235197 13.8947368,16.8863487 13.8947368,17.0526316 C13.8947368,17.2186677 13.9623355,17.3814967 14.0797698,17.4991776 C14.1972039,17.6166118 14.3602796,17.6842105 14.5263158,17.6842105 C14.692352,17.6842105 14.8554277,17.6166118 14.9728618,17.4991776 Z" id="Path"></path>
                                <path d="M12.446546,17.4991776 C12.5639803,17.3814967 12.6315789,17.2186677 12.6315789,17.0526316 C12.6315789,16.8863487 12.5639803,16.7235197 12.446546,16.6060855 C12.3291119,16.4886513 12.1660362,16.4210526 12,16.4210526 C11.8339638,16.4210526 11.6708881,16.4886513 11.553454,16.6060855 C11.4360197,16.7235197 11.3684211,16.8863487 11.3684211,17.0526316 C11.3684211,17.2186677 11.4360197,17.3814967 11.553454,17.4991776 C11.6708881,17.6166118 11.8339638,17.6842105 12,17.6842105 C12.1660362,17.6842105 12.3291119,17.6166118 12.446546,17.4991776 Z" id="Path"></path>
                                <path d="M6.94736842,17.6842105 C7.11340459,17.6842105 7.27648029,17.6166118 7.39391444,17.4991776 C7.51134872,17.3814967 7.57894737,17.2186677 7.57894737,17.0526316 C7.57894737,16.8863487 7.51134872,16.7235197 7.39391444,16.6060855 C7.27648029,16.4886513 7.11340459,16.4210526 6.94736842,16.4210526 C6.78133225,16.4210526 6.61825655,16.4886513 6.5008224,16.6060855 C6.38338813,16.7235197 6.31578947,16.8863487 6.31578947,17.0526316 C6.31578947,17.2186677 6.38338813,17.3814967 6.5008224,17.4991776 C6.61825655,17.6166118 6.78133225,17.6842105 6.94736842,17.6842105 Z" id="Path"></path>
                                <path d="M17.4991776,17.4991776 C17.6166119,17.3814967 17.6842105,17.2186677 17.6842105,17.0526316 C17.6842105,16.8863487 17.6166119,16.7235197 17.4991776,16.6060855 C17.3817435,16.4886513 17.2186677,16.4210526 17.0526316,16.4210526 C16.8865954,16.4210526 16.7235197,16.4886513 16.6060856,16.6060855 C16.4886513,16.7235197 16.4210526,16.8863487 16.4210526,17.0526316 C16.4210526,17.2186677 16.4886513,17.3814967 16.6060856,17.4991776 C16.7235197,17.6166118 16.8865954,17.6842105 17.0526316,17.6842105 C17.2186677,17.6842105 17.3817435,17.6166118 17.4991776,17.4991776 Z" id="Path"></path>
                                <path d="M9.47368421,20.2105263 C9.30764804,20.2105263 9.1445724,20.278125 9.02713819,20.3955592 C8.90970398,20.5129934 8.84210526,20.6758223 8.84210526,20.8421053 C8.84210526,21.0081414 8.90970398,21.1709704 9.02713819,21.2886513 C9.1445724,21.4060855 9.30764804,21.4736842 9.47368421,21.4736842 C9.64046059,21.4736842 9.80279608,21.4060855 9.92023029,21.2886513 C10.0384047,21.1709704 10.1052632,21.0081414 10.1052632,20.8421053 C10.1052632,20.6758223 10.0384047,20.5129934 9.92023029,20.3955592 C9.80279608,20.278125 9.64046059,20.2105263 9.47368421,20.2105263 Z" id="Path"></path>
                                <path d="M19.7426901,13.8947368 L5.52046784,13.8947368 C5.26206138,13.8947368 5.05263158,14.1016126 5.05263158,14.3568678 L5.05263158,21.0115533 C5.05263158,21.2666279 5.26206138,21.4736842 5.52046784,21.4736842 L7.46929825,21.4736842 C7.7277047,21.4736842 7.9371345,21.2666279 7.9371345,21.0115533 C7.9371345,20.7562981 7.7277047,20.5494223 7.46929825,20.5494223 L5.98830409,20.5494223 L5.98830409,14.8189987 L19.2748538,14.8189987 L19.2748538,20.5494223 L11.6798246,20.5494223 C11.4214181,20.5494223 11.2119883,20.7562981 11.2119883,21.0115533 C11.2119883,21.2666279 11.4214181,21.4736842 11.6798246,21.4736842 L19.7426901,21.4736842 C20.0010965,21.4736842 20.2105263,21.2666279 20.2105263,21.0115533 L20.2105263,14.3568678 C20.2105263,14.1016126 20.0010965,13.8947368 19.7426901,13.8947368 Z" id="Path"></path>
                            </g>
                        </g>
                    </g>
                </g>
            </g>
        </g>
    </g>
</svg>